<?xml version="1.0" encoding="UTF-8" standalone="no"?>
<!-- Created with Inkscape (http://www.inkscape.org/) -->
<svg xmlns:rdf="http://www.w3.org/1999/02/22-rdf-syntax-ns#" xmlns="http://www.w3.org/2000/svg" height="32" width="32" version="1.1" xmlns:cc="http://creativecommons.org/ns#" xmlns:dc="http://purl.org/dc/elements/1.1/" viewBox="0 0 8.4666667 8.46656">
 <metadata>
  <rdf:RDF>
   <cc:Work rdf:about="">
    <dc:format>image/svg+xml</dc:format>
    <dc:type rdf:resource="http://purl.org/dc/dcmitype/StillImage"/>
    <dc:title/>
   </cc:Work>
  </rdf:RDF>
 </metadata>
 <g transform="translate(0 -4.2333)">
  <g fill="#225ca0">
   <path style="color-rendering:auto;color:#000000;isolation:auto;mix-blend-mode:normal;shape-rendering:auto;solid-color:#000000;image-rendering:auto" d="m10 32v1h12v-1h-11z" transform="matrix(.26458 0 0 .26458 0 -.00008)"/>
   <path style="color-rendering:auto;color:#000000;isolation:auto;mix-blend-mode:normal;shape-rendering:auto;solid-color:#000000;image-rendering:auto" d="m8 29v1h16v1h-2v1h3v-3h-16z" transform="matrix(.26458 0 0 .26458 0 -.00008)"/>
   <path style="color-rendering:auto;color:#000000;isolation:auto;mix-blend-mode:normal;shape-rendering:auto;solid-color:#000000;image-rendering:auto" d="m11 34v4h10v-4h-9zm1 1h8v2h-8v-1z" transform="matrix(.26458 0 0 .26458 0 -.00008)"/>
  </g>
  <g fill="#333">
   <path style="color-rendering:auto;color:#000000;isolation:auto;mix-blend-mode:normal;shape-rendering:auto;solid-color:#000000;image-rendering:auto" d="m14 25v1h4v-1h-3z" transform="matrix(.26458 0 0 .26458 0 -.00008)"/>
   <rect style="color-rendering:auto;color:#000000;isolation:auto;mix-blend-mode:normal;shape-rendering:auto;solid-color:#000000;image-rendering:auto" height=".26458" width=".26458" y="6.3499" x="4.7625"/>
   <rect style="color-rendering:auto;color:#000000;isolation:auto;mix-blend-mode:normal;shape-rendering:auto;solid-color:#000000;image-rendering:auto" height=".26458" width=".26458" y="6.3499" x="3.4396"/>
  </g>
  <path style="color-rendering:auto;color:#000000;isolation:auto;mix-blend-mode:normal;shape-rendering:auto;solid-color:#000000;image-rendering:auto" d="m8 30v1h2v1h12v-1h2v-1h-15z" transform="matrix(.26458 0 0 .26458 0 -.00008)" fill="#4d8dd9"/>
  <path style="color-rendering:auto;color:#000000;isolation:auto;mix-blend-mode:normal;shape-rendering:auto;solid-color:#000000;image-rendering:auto" d="m12 35v2h8v-2h-7z" transform="matrix(.26458 0 0 .26458 0 -.00008)" fill="#4d8dd9"/>
  <path style="color-rendering:auto;color:#000000;isolation:auto;mix-blend-mode:normal;shape-rendering:auto;solid-color:#000000;image-rendering:auto" d="m9 16v3h-2v1h2v1h-2v1h2v1h14v-7h-6v1h5v5h-12v-5h5v-1h-5z" transform="matrix(.26458 0 0 .26458 0 -.00008)" fill="#225ca0"/>
  <g fill="#ddd">
   <path style="color-rendering:auto;color:#000000;isolation:auto;mix-blend-mode:normal;shape-rendering:auto;solid-color:#000000;image-rendering:auto" d="m11 40v2h10v-2h-9z" transform="matrix(.26458 0 0 .26458 0 -.00008)"/>
   <path style="color-rendering:auto;color:#000000;isolation:auto;mix-blend-mode:normal;shape-rendering:auto;solid-color:#000000;image-rendering:auto" d="m10 23v4h12v-4h-11zm3 1h1v1h4v-1h1v1h-1v1h-4v-1h-1z" transform="matrix(.26458 0 0 .26458 0 -.00008)"/>
   <path style="color-rendering:auto;color:#000000;isolation:auto;mix-blend-mode:normal;shape-rendering:auto;solid-color:#000000;image-rendering:auto" d="m26 26v4h-1v1h2v-5z" transform="matrix(.26458 0 0 .26458 0 -.00008)"/>
  </g>
  <path style="color-rendering:auto;color:#000000;isolation:auto;mix-blend-mode:normal;shape-rendering:auto;solid-color:#000000;image-rendering:auto" d="m7 30v2h3v-1h-2v-1z" transform="matrix(.26458 0 0 .26458 0 -.00008)" fill="#225ca0"/>
  <path style="color-rendering:auto;color:#000000;isolation:auto;mix-blend-mode:normal;shape-rendering:auto;solid-color:#000000;image-rendering:auto" d="m8 32v5h1v-5z" transform="matrix(.26458 0 0 .26458 0 -.00008)" fill="#ddd"/>
  <path style="color-rendering:auto;color:#000000;isolation:auto;mix-blend-mode:normal;shape-rendering:auto;solid-color:#000000;image-rendering:auto" d="m10 17v5h12v-5h-5v1h-2v-1h-4zm2 2h2v1h1v1h-1v-1h-2v1h-1v-1h1zm6 0h2v1h1v1h-1v-1h-2v1h-1v-1h1z" transform="matrix(.26458 0 0 .26458 0 -.00008)" fill="#4d8dd9"/>
  <path style="color-rendering:auto;color:#000000;isolation:auto;mix-blend-mode:normal;shape-rendering:auto;solid-color:#000000;image-rendering:auto" d="m15 17v1h2v-1h-1z" transform="matrix(.26458 0 0 .26458 0 -.00008)" fill="#225ca0"/>
  <g fill="#333">
   <rect style="color-rendering:auto;color:#000000;isolation:auto;mix-blend-mode:normal;shape-rendering:auto;solid-color:#000000;image-rendering:auto" height=".26458" width=".26458" y="5.2915" x="2.9104"/>
   <path style="color-rendering:auto;color:#000000;isolation:auto;mix-blend-mode:normal;shape-rendering:auto;solid-color:#000000;image-rendering:auto" d="m12 19v1h2v-1h-1z" transform="matrix(.26458 0 0 .26458 0 -.00008)"/>
   <rect style="color-rendering:auto;color:#000000;isolation:auto;mix-blend-mode:normal;shape-rendering:auto;solid-color:#000000;image-rendering:auto" height=".26458" width=".26458" y="5.2915" x="3.7042"/>
   <rect style="color-rendering:auto;color:#000000;isolation:auto;mix-blend-mode:normal;shape-rendering:auto;solid-color:#000000;image-rendering:auto" height=".26458" width=".26458" y="5.2915" x="5.2917"/>
   <path style="color-rendering:auto;color:#000000;isolation:auto;mix-blend-mode:normal;shape-rendering:auto;solid-color:#000000;image-rendering:auto" d="m18 19v1h2v-1h-1z" transform="matrix(.26458 0 0 .26458 0 -.00008)"/>
   <rect style="color-rendering:auto;color:#000000;isolation:auto;mix-blend-mode:normal;shape-rendering:auto;solid-color:#000000;image-rendering:auto" height=".26458" width=".26458" y="5.2915" x="4.4979"/>
  </g>
  <path style="color-rendering:auto;color:#000000;isolation:auto;mix-blend-mode:normal;shape-rendering:auto;solid-color:#000000;image-rendering:auto" d="m7 23v1h2v-1h-1z" transform="matrix(.26458 0 0 .26458 0 -.00008)" fill="#225ca0"/>
  <g fill="#888">
   <path style="color-rendering:auto;color:#000000;isolation:auto;mix-blend-mode:normal;shape-rendering:auto;solid-color:#000000;image-rendering:auto" d="m9 23v5h14v-5h-1v4h-12v-4z" transform="matrix(.26458 0 0 .26458 0 -.00008)"/>
   <path style="color-rendering:auto;color:#000000;isolation:auto;mix-blend-mode:normal;shape-rendering:auto;solid-color:#000000;image-rendering:auto" d="m10 39v4h12v-4h-11zm1 1h10v2h-10v-1z" transform="matrix(.26458 0 0 .26458 0 -.00008)"/>
   <path style="color-rendering:auto;color:#000000;isolation:auto;mix-blend-mode:normal;shape-rendering:auto;solid-color:#000000;image-rendering:auto" d="m10 44v4h3v-4h-2zm1 1h1v2h-1v-1z" transform="matrix(.26458 0 0 .26458 0 -.00008)"/>
   <path style="color-rendering:auto;color:#000000;isolation:auto;mix-blend-mode:normal;shape-rendering:auto;solid-color:#000000;image-rendering:auto" d="m19 44v4h3v-4h-2zm1 1h1v2h-1v-1z" transform="matrix(.26458 0 0 .26458 0 -.00008)"/>
   <path style="color-rendering:auto;color:#000000;isolation:auto;mix-blend-mode:normal;shape-rendering:auto;solid-color:#000000;image-rendering:auto" d="m25 25v5h1v-4h1v5h1v-6h-2z" transform="matrix(.26458 0 0 .26458 0 -.00008)"/>
   <path style="color-rendering:auto;color:#000000;isolation:auto;mix-blend-mode:normal;shape-rendering:auto;solid-color:#000000;image-rendering:auto" d="m27 23v1h2v-1h-1z" transform="matrix(.26458 0 0 .26458 0 -.00008)"/>
   <path style="color-rendering:auto;color:#000000;isolation:auto;mix-blend-mode:normal;shape-rendering:auto;solid-color:#000000;image-rendering:auto" d="m29 24v2h1v-2z" transform="matrix(.26458 0 0 .26458 0 -.00008)"/>
   <path style="color-rendering:auto;color:#000000;isolation:auto;mix-blend-mode:normal;shape-rendering:auto;solid-color:#000000;image-rendering:auto" d="m25 31v1h2v-1h-1z" transform="matrix(.26458 0 0 .26458 0 -.00008)"/>
   <path style="color-rendering:auto;color:#000000;isolation:auto;mix-blend-mode:normal;shape-rendering:auto;solid-color:#000000;image-rendering:auto" d="m7 32v6h3v-6h-1v5h-1v-5z" transform="matrix(.26458 0 0 .26458 0 -.00008)"/>
  </g>
  <rect style="color-rendering:auto;color:#000000;isolation:auto;mix-blend-mode:normal;shape-rendering:auto;solid-color:#000000;image-rendering:auto" transform="scale(-1)" height=".26458" width=".26458" y="-6.0852" x="-1.8521" fill="#225ca0"/>
  <path style="color-rendering:auto;color:#000000;isolation:auto;mix-blend-mode:normal;shape-rendering:auto;solid-color:#000000;image-rendering:auto" d="m7 22v1h2v-1h-1z" transform="matrix(.26458 0 0 .26458 0 -.00008)" fill="#4d8dd9"/>
  <rect style="color-rendering:auto;color:#000000;isolation:auto;mix-blend-mode:normal;shape-rendering:auto;solid-color:#000000;image-rendering:auto" transform="scale(-1)" height=".26458" width=".26458" y="-5.5561" x="-1.8521" fill="#225ca0"/>
  <path style="color-rendering:auto;color:#000000;isolation:auto;mix-blend-mode:normal;shape-rendering:auto;solid-color:#000000;image-rendering:auto" d="m7 20v1h2v-1h-1z" transform="matrix(.26458 0 0 .26458 0 -.00008)" fill="#4d8dd9"/>
  <path style="color-rendering:auto;color:#000000;isolation:auto;mix-blend-mode:normal;shape-rendering:auto;solid-color:#000000;image-rendering:auto" d="m20 45v2h1v-2z" transform="matrix(.26458 0 0 .26458 0 -.00008)" fill="#ddd"/>
  <path style="color-rendering:auto;color:#000000;isolation:auto;mix-blend-mode:normal;shape-rendering:auto;solid-color:#000000;image-rendering:auto" d="m11 45v2h1v-2z" transform="matrix(.26458 0 0 .26458 0 -.00008)" fill="#ddd"/>
 </g>
</svg>
